<?xml version="1.0" encoding="utf-8"?>

<!-- Uploaded to: SVG Repo, www.svgrepo.com, Generator: SVG Repo Mixer Tools -->
<svg fill="#000000" height="800px" width="800px" version="1.1" id="Icons" xmlns="http://www.w3.org/2000/svg" xmlns:xlink="http://www.w3.org/1999/xlink" 
	 viewBox="0 0 32 32" xml:space="preserve">
<path d="M22,1H10C6.1,1,3,4.1,3,8s3.1,7,7,7h12c3.9,0,7-3.1,7-7S25.9,1,22,1z M22,12c-2.2,0-4-1.8-4-4s1.8-4,4-4s4,1.8,4,4
	S24.2,12,22,12z"/>
<path d="M22,17H10c-3.9,0-7,3.1-7,7s3.1,7,7,7h12c3.9,0,7-3.1,7-7S25.9,17,22,17z M10,28c-2.2,0-4-1.8-4-4s1.8-4,4-4s4,1.8,4,4
	S12.2,28,10,28z"/>
</svg>