<?xml version="1.0" encoding="utf-8"?>
<!-- Uploaded to: SVG Repo, www.svgrepo.com, Generator: SVG Repo Mixer Tools -->
<svg width="800px" height="800px" viewBox="0 0 1024 1024" class="icon"  version="1.1" xmlns="http://www.w3.org/2000/svg"><path d="M841.893804 97.371494H180.399379c-13.501976 0-24.454477 10.955573-24.454477 24.454477V553.802166c0 1.209209 0.508871 2.226951 0.701362 3.374726 0.762795 11.398915 9.168893 21.207737 20.825827 22.863359l65.783608 9.234422c50.439663 7.258323 111.76937 16.110836 167.936647 22.163022v32.414162H186.833475c-13.501976 0-24.454477 10.952501-24.454477 24.454477v236.078263c0 13.501976 10.952501 24.454477 24.454477 24.454477h652.194474c13.501976 0 24.454477-10.952501 24.454477-24.454477v-236.077239c0-13.501976-10.952501-24.454477-24.454477-24.454478h-236.271778v-31.076967c57.57-5.859696 121.766586-15.348041 173.796343-22.991345l68.58803-9.743293c12.419729-1.783608 21.334699-12.801638 20.95279-25.094405 0-0.381909 0.253924-0.69829 0.253923-1.144704V121.826995c0.001024-13.498904-10.951477-24.455501-24.453453-24.455501z" fill="#27323A" /><path d="M211.287952 692.761835h603.284496V879.93012H211.287952z" fill="#F4CE73" /><path d="M460.102325 643.851857v-27.894732c19.678052 1.467228 38.084439 2.422513 53.878893 2.422512 11.973315 0 25.599181-0.638904 39.864975-1.529684v27.001904h-93.743868zM817.438303 534.567456l-48.016126 6.814981c-80.371926 11.846353-190.354616 28.087222-255.439935 28.087222-66.106132 0-180.291871-16.561345-263.656614-28.596093l-45.469724-6.368567V146.281472h612.583423v388.285984z" fill="#FFFFFF" /><path d="M599.254483 798.41349h163.606637c13.498904 0 24.454477-10.952501 24.454477-24.455501 0-13.498904-10.955573-24.454477-24.454477-24.454477h-163.606637c-13.501976 0-24.454477 10.955573-24.454477 24.454477 0 13.503 10.952501 24.455501 24.454477 24.455501zM489.399779 541.128514c0-12.034748 9.804726-21.84357 21.84357-21.84357 11.973315 0 21.781113 9.807798 21.781112 21.84357 0 11.973315-9.807798 21.781113-21.781112 21.781112-12.038844 0-21.84357-9.808821-21.84357-21.781112zM250.772042 167.489209c-8.980498 0-16.303326 7.261395-16.303326 16.303326v310.017118c0 9.045003 7.322828 16.303326 16.303326 16.303326h520.877085c8.980498 0 16.303326-7.258323 16.303326-16.303326V183.792535c0-9.041931-7.322828-16.303326-16.303326-16.303326H250.772042z" fill="#27323A" /><path d="M755.345801 200.095861v277.410466h-488.270433V200.095861h488.270433z" fill="#79CCBF" /></svg>