<?xml version="1.0" encoding="iso-8859-1"?>
<!-- Uploaded to: SVG Repo, www.svgrepo.com, Generator: SVG Repo Mixer Tools -->
<svg fill="#000000" height="800px" width="800px" version="1.1" id="Layer_1" xmlns="http://www.w3.org/2000/svg" xmlns:xlink="http://www.w3.org/1999/xlink" 
	 viewBox="0 0 512 512" xml:space="preserve">
<g>
	<g>
		<g>
			<path d="M373.333,234.667c-76.587,0-138.667,62.08-138.667,138.667S296.747,512,373.333,512S512,449.92,512,373.333
				C511.893,296.747,449.92,234.773,373.333,234.667z M373.333,490.667C308.48,490.667,256,438.187,256,373.333
				S308.48,256,373.333,256s117.333,52.48,117.333,117.333C490.56,438.08,438.08,490.56,373.333,490.667z"/>
			<path d="M450.453,330.56c-4.373-3.947-11.2-3.627-15.147,0.747l-73.92,81.067l-50.24-50.24
				c-4.267-4.053-10.987-3.947-15.04,0.213c-3.947,4.16-3.947,10.667,0,14.827l58.133,58.133c2.027,2.027,4.693,3.093,7.573,3.093
				h0.213c2.88-0.107,5.653-1.28,7.68-3.52L451.2,345.6C455.147,341.227,454.827,334.507,450.453,330.56z"/>
			<path d="M181.333,384H97.067c4.373-5.653,7.573-12.16,9.28-19.093c0.213-0.853,0.32-1.707,0.32-2.56V128h320v63.68
				c0,5.333,3.84,10.133,9.067,10.88C442.347,203.52,448,198.4,448,192v-74.667c0-5.867-4.8-10.667-10.667-10.667h-32V64
				c0-5.867-4.8-10.667-10.667-10.667H168.533l-30.72-48.427C135.893,1.813,132.48,0,128.853,0H10.667C4.8,0,0,4.8,0,10.667v351.68
				c0,0.853,0.107,1.707,0.32,2.56c5.76,23.147,25.92,38.827,50.453,39.893c0.853,0.32,1.707,0.427,2.56,0.533h127.68
				c5.333,0,10.133-3.84,10.88-9.067C192.853,389.653,187.733,384,181.333,384z M85.333,117.333V360.96
				c-4.8,16.747-20.16,22.72-32,22.72c-11.84,0-27.2-5.973-32-22.72V21.333H122.88L153.6,69.76c1.92,3.093,5.333,4.907,9.067,4.907
				H384v32H96C90.133,106.667,85.333,111.467,85.333,117.333z"/>
		</g>
	</g>
</g>
</svg>